inDegrees=no
num_controls=7
num_derivatives=13
num_iterations=37
num_multipliers=7
num_parameters=0
num_slacks=7
num_states=26
objective=0.432389
objective_accelerations=0.051864
objective_balance=0.006784
objective_effort=0.032828
objective_height=0.339757
objective_ligament=0.001157
solver_duration=489.230435
status=Solve_Succeeded
success=true
DataType=double
version=3
OpenSimVersion=4.5
endheader
time	/jointset/ground_pelvis/pelvis_tilt/value	/jointset/ground_pelvis/pelvis_tx/value	/jointset/ground_pelvis/pelvis_ty/value	/jointset/hip_l/hip_flexion_l/value	/jointset/hip_l/hip_adduction_l/value	/jointset/hip_l/hip_rotation_l/value	/jointset/back/lumbar_extension/value	/jointset/patellofemoral_l/patellar_flexion_l/value	/jointset/knee_l/knee_flexion_l/value	/jointset/knee_l/knee_adduction_l/value	/jointset/knee_l/knee_rotation_l/value	/jointset/ankle_l/ankle_angle_l/value	/jointset/subtalar_l/subtalar_angle_l/value	/jointset/ground_pelvis/pelvis_tilt/speed	/jointset/ground_pelvis/pelvis_tx/speed	/jointset/ground_pelvis/pelvis_ty/speed	/jointset/hip_l/hip_flexion_l/speed	/jointset/hip_l/hip_adduction_l/speed	/jointset/hip_l/hip_rotation_l/speed	/jointset/back/lumbar_extension/speed	/jointset/patellofemoral_l/patellar_flexion_l/speed	/jointset/knee_l/knee_flexion_l/speed	/jointset/knee_l/knee_adduction_l/speed	/jointset/knee_l/knee_rotation_l/speed	/jointset/ankle_l/ankle_angle_l/speed	/jointset/subtalar_l/subtalar_angle_l/speed	/forceset/tau_hip_flexion_l	/forceset/tau_hip_adduction_l	/forceset/tau_hip_rotation_l	/forceset/tau_knee_flexion_l	/forceset/tau_ankle_angle_l	/forceset/tau_subtalar_angle_l	/forceset/tau_lumbar_extension	lambda_cid13_p0	lambda_cid13_p1	lambda_cid13_p2	lambda_cid13_p3	lambda_cid13_p4	lambda_cid13_p5	lambda_cid14_p0	/jointset/ground_pelvis/pelvis_tilt/accel	/jointset/ground_pelvis/pelvis_tx/accel	/jointset/ground_pelvis/pelvis_ty/accel	/jointset/hip_l/hip_flexion_l/accel	/jointset/hip_l/hip_adduction_l/accel	/jointset/hip_l/hip_rotation_l/accel	/jointset/back/lumbar_extension/accel	/jointset/patellofemoral_l/patellar_flexion_l/accel	/jointset/knee_l/knee_flexion_l/accel	/jointset/knee_l/knee_adduction_l/accel	/jointset/knee_l/knee_rotation_l/accel	/jointset/ankle_l/ankle_angle_l/accel	/jointset/subtalar_l/subtalar_angle_l/accel	gamma_cid13_p0	gamma_cid13_p1	gamma_cid13_p2	gamma_cid13_p3	gamma_cid13_p4	gamma_cid13_p5	gamma_cid14_p0
1.5	-0.3466594746350543	-0.03335079968342392	0.7608591667450427	1.195289187932905	-0.3048911471527511	0.01458547917942074	-0.3469528519398066	0.8304633875274889	0.8304633875275841	-0.1729103575818251	0.1677042914763884	0.1639977811036065	-0.01945651095835836	0.4493726950398716	0.1544417049496906	0.5150931671841398	-2.130627417546646	-0.01438409061540715	-0.702509254741703	0.5697928072830534	-2.103569065339379	-2.1035690653396	0.01063024464224525	-0.04354955757409465	-0.5455265672198789	-0.1057898054825724	-0.2080386479938539	0.0761701103934109	-0.02510668127864234	-0.2481248145150208	0.09829404332847706	-0.006217827179378568	0.2035182858451939	-8.114015294298554	3.630464699713257	-0.4207821498551961	-0.8155610074984284	-612.1961592792479	-12.56252946931732	-19.66755685000074	0.5856575675686509	0.5902439365445022	-0.3481949585925887	-1.607739603114722	0.6993723035120781	-0.3968673102385568	1.914781703571454	-1.572945532107088	-1.572945532107082	0.06890322887845757	-0.1285175397107808	-0.5752291019265487	0.725861528516296	3.936715627807246e-07	4.631740944866131e-07	-2.493789698685751e-06	-2.620000892429916e-07	4.643535026716369e-07	2.247636386574497e-07	3.954086078482655e-07
1.51	-0.3421365565778259	-0.03177691678527488	0.765991632326059	1.173904494525421	-0.3050011234348979	0.007543668565563422	-0.3411603563908669	0.8093513170385143	0.8093513170385579	-0.1728046956924623	0.1672622154723821	0.1585142055833418	-0.02047955966160735	0.4551551442498266	0.1603249978287196	0.5112915168252012	-2.14602730756084	-0.007591873262161522	-0.7057486194034023	0.5886362116417612	-2.118549338815963	-2.118549338816023	0.01048089913138757	-0.04486748179771583	-0.5510896381188793	-0.09880319905693366	-0.2016476355991106	0.0759789882945356	-0.02498352399386875	-0.2452988020635057	0.1001953904732991	-0.006893478543181007	0.1982256456097516	-7.277794535244196	3.601690649978034	-0.2153976071375061	-1.153515306496411	-607.675834099784	-12.55669676060167	-20.95925244022446	0.5662120479308669	0.5858351592743153	-0.4123089652847978	-1.463467886930601	0.6723829290859226	-0.2714370820974883	1.858606172589142	-1.416301731952003	-1.416301731927845	-0.06004534030550843	-0.1331710613137687	-0.5320229822289454	0.6877883791105802	4.290077691114655e-07	5.684333319596888e-07	-2.630140360368709e-06	-2.714924203512135e-07	5.074767683476154e-07	3.209240492904032e-07	4.232626816383824e-07
1.52	-0.3375574793384706	-0.03014450831919709	0.7710828496253379	1.152374331380511	-0.3050425302479454	0.0004726710975006245	-0.3351815295242294	0.7880982971194738	0.7880982971194669	-0.1727011656380456	0.1668070119866169	0.1529779639744178	-0.02143219666469537	0.4606045314686885	0.1661468185354426	0.5068435108366834	-2.159721365029366	-0.0006701967946994213	-0.7083466255835783	0.6070590708232264	-2.131758951353268	-2.131758951353168	0.01020387765102781	-0.04617505392638392	-0.5560597849515688	-0.09170746545037037	-0.1952566232043657	0.07578786619565304	-0.02486036670905176	-0.2424727896119997	0.1020967376181163	-0.007569129906992006	0.1929330053743094	-6.447513744398715	3.569641224177754	-0.004559650107605209	-1.509180448478558	-603.2532817485155	-12.64321272392229	-22.24725934205327	0.5190451693500145	0.5779495020832622	-0.4774660845084032	-1.266573093980794	0.7252641263553719	-0.2685956139339713	1.830672668122948	-1.218813344251481	-1.218813344251531	0.04336803497804437	-0.126447120720163	-0.4566442886644178	0.7476869647011891	4.684964974314595e-07	6.746904941460057e-07	-2.780539293576101e-06	-2.837907249096137e-07	5.573467913569204e-07	4.23552108343289e-07	4.533567125329041e-07
1.53	-0.3329256024127463	-0.02845424186290087	0.7761264085256252	1.130715757678607	-0.3050142811979695	-0.006621538916882633	-0.3290208225087999	0.7667220955752002	0.7667220955751932	-0.1726009821330048	0.1663391445620183	0.1473949799114341	-0.02231355885465383	0.4657034262138412	0.1718904227830698	0.501762891368793	-2.171683423721649	0.006341404648496389	-0.710442392557016	0.6249970855699734	-2.14315639227975	-2.143156392279747	0.009862064124632681	-0.0473621596949547	-0.5604252689545965	-0.0845437473930782	-0.1886141237980132	0.07529507023659293	-0.02470585389764543	-0.2399100190442942	0.1043070850291709	-0.008400395392852131	0.1874139951816741	-5.52452368899202	3.591842895194256	0.1943139775758567	-1.879176033745093	-598.8235422471679	-12.69259741210783	-23.52933987407237	0.4952456245354352	0.5700969448594411	-0.5390375715267059	-1.114465751961092	0.6926868959366571	-0.171658166054868	1.762578874061416	-1.051565326848261	-1.051565326862649	-0.06857308150573516	-0.1088032099989174	-0.4097421252173556	0.7041198796042345	5.123972803650347e-07	7.820079513401416e-07	-2.945864515278205e-06	-2.990703762588282e-07	6.143852440328847e-07	5.330520438423526e-07	4.85830697850856e-07
1.54	-0.3282447497401	-0.02670703315237692	0.781116025692514	1.108946874690745	-0.3049152003850367	-0.01373502478640514	-0.3226832927466846	0.745241648449665	0.7452416484496575	-0.1725033401702275	0.1658606138987235	0.1417716926746003	-0.0231226027333672	0.4703996808565284	0.1775352693809903	0.4960551641570437	-2.181783222218268	0.01349615579710724	-0.7122017966107042	0.6424236201611642	-2.152608067606301	-2.152608067606394	0.00969556919594112	-0.04830770166646881	-0.5641204197214438	-0.07724380320133886	-0.1819716243916827	0.07480227427750338	-0.02455134108611376	-0.2373472484766173	0.1065174324402099	-0.009231660878756025	0.1818949849890217	-4.605409682208248	3.609850785532713	0.3994238025533969	-2.277983373669	-594.4664663040754	-12.84276244967441	-24.80388666949066	0.438517148856879	0.5581979721419014	-0.6028876332801607	-0.8941210548481444	0.7538940674383814	-0.2013230299840902	1.728376637011737	-0.8296602242653487	-0.8296602242653544	0.0784317545187687	-0.07813436130883263	-0.3225776414283987	0.7749321915906281	5.668182520353741e-07	8.889478776768034e-07	-3.183499318395518e-06	-3.236568724729039e-07	6.838317752060921e-07	6.517433056409031e-07	5.277670323728774e-07
